<svg xmlns="http://www.w3.org/2000/svg" width="512" height="512" viewBox="0 0 512 512" version="1.1"><path d="M 179 11.603 C 161.666 16.241, 150.973 29.911, 139.971 61.500 C 137.672 68.100, 134.607 75.623, 133.161 78.217 C 130.792 82.466, 130.032 83.045, 125.515 84.042 C 122.757 84.650, 111.950 85.553, 101.500 86.048 C 72.871 87.405, 61.939 90.898, 51.693 101.965 C 43.525 110.787, 41.583 116.463, 41.585 131.500 C 41.586 143.894, 42.439 148.409, 48.574 168.500 C 49.918 172.900, 51.419 179.425, 51.911 183 L 52.804 189.500 48.152 194.353 C 45.593 197.022, 39 202.612, 33.500 206.775 C 18.439 218.175, 9.054 228.089, 4.391 237.523 C 0.609 245.175, 0.500 245.694, 0.500 256 C 0.500 266.318, 0.606 266.817, 4.417 274.530 C 9.067 283.937, 18.144 293.506, 33.500 305.187 C 39 309.371, 45.593 314.978, 48.152 317.647 L 52.804 322.500 51.911 329 C 51.419 332.575, 49.918 339.100, 48.574 343.500 C 42.439 363.591, 41.586 368.106, 41.585 380.500 C 41.583 395.537, 43.525 401.213, 51.693 410.035 C 62.007 421.176, 72.843 424.603, 102.006 425.948 C 112.734 426.443, 123.606 427.376, 126.166 428.020 C 130.521 429.117, 131.016 429.591, 133.874 435.395 C 135.553 438.807, 138.541 446.301, 140.513 452.049 C 151.318 483.539, 163.401 497.592, 182.768 501.194 C 195.572 503.575, 209.997 498.402, 231.694 483.648 C 237.850 479.462, 245.808 474.597, 249.377 472.837 L 255.867 469.636 260.184 471.491 C 262.558 472.512, 270.829 477.496, 278.564 482.567 C 302.332 498.150, 314.074 502.848, 326.180 501.621 C 347.073 499.503, 359.803 485.561, 371.443 452.049 C 373.439 446.301, 376.455 438.790, 378.144 435.359 C 381.124 429.307, 381.370 429.085, 386.358 427.986 C 389.186 427.362, 400.050 426.447, 410.500 425.952 C 439.129 424.595, 450.061 421.102, 460.307 410.035 C 468.475 401.213, 470.417 395.537, 470.415 380.500 C 470.414 368.106, 469.561 363.591, 463.426 343.500 C 462.082 339.100, 460.581 332.575, 460.089 329 L 459.196 322.500 463.848 317.647 C 466.407 314.978, 472.844 309.482, 478.154 305.434 C 496.760 291.246, 505.608 281.321, 509.497 270.273 C 510.421 267.648, 511.587 264.719, 512.089 263.764 C 513.359 261.344, 513.279 246.710, 512 247.500 C 511.450 247.840, 511 247.252, 511 246.193 C 511 245.135, 509.347 240.965, 507.327 236.927 C 502.893 228.063, 493.120 217.841, 478.500 206.775 C 473 202.612, 466.407 197.022, 463.848 194.353 L 459.196 189.500 460.089 183 C 460.581 179.425, 462.082 172.900, 463.426 168.500 C 469.561 148.409, 470.414 143.894, 470.415 131.500 C 470.417 116.463, 468.475 110.787, 460.307 101.965 C 449.993 90.824, 439.157 87.397, 409.994 86.052 C 399.266 85.557, 388.406 84.627, 385.860 83.986 C 381.488 82.885, 381.053 82.456, 378.023 76.242 C 376.259 72.624, 373.260 65.127, 371.358 59.582 C 360.697 28.492, 348.520 14.393, 329.232 10.806 C 316.260 8.394, 303.468 13.021, 279.819 28.681 C 272.494 33.531, 264.137 38.589, 261.250 39.921 L 256 42.342 250.757 39.921 C 247.873 38.589, 239.661 33.620, 232.507 28.878 C 206.437 11.598, 194.012 7.587, 179 11.603 M 327.500 183.441 C 325.850 184.191, 303.352 205.998, 277.504 231.902 C 251.656 257.806, 230.052 279, 229.495 279 C 228.937 279, 219.485 269.953, 208.491 258.896 C 196.099 246.434, 186.980 238.080, 184.500 236.918 C 167.460 228.935, 148.932 247.463, 156.919 264.500 C 159.514 270.036, 216.139 326.366, 221.218 328.464 C 226.338 330.579, 233.551 330.397, 238.434 328.027 C 241.134 326.718, 261.371 307.147, 298.668 269.777 C 349.749 218.597, 354.944 213.092, 356.026 209 C 359.813 194.679, 350.394 181.939, 336.093 182.039 C 333.017 182.061, 329.150 182.692, 327.500 183.441 M 0.349 256 C 0.349 260.675, 0.522 262.587, 0.732 260.250 C 0.943 257.913, 0.943 254.088, 0.732 251.750 C 0.522 249.412, 0.349 251.325, 0.349 256" stroke="none" fill="#76b6fc" fill-rule="evenodd"/></svg>